# Blender v2.91.0 OBJ File: 'city.blend'
# www.blender.org
mtllib car.mtl
o CAR_02
v 13.414233 -0.468663 5.886615
v 14.133692 4.097088 5.886616
v 14.133694 4.097090 -5.881126
v 13.414234 -0.468661 -5.881127
v 10.730345 9.440804 5.886617
v 10.730345 9.440805 -5.881126
v -0.340622 1.409938 -5.881127
v -0.340622 -0.468661 -5.881127
v -4.479783 1.409938 -5.881127
v -4.479783 -0.468661 -5.881127
v -14.062508 1.459017 -5.881127
v -14.062508 -0.468661 -5.881127
v -0.340622 9.478234 -5.881126
v -4.479783 4.609576 -5.881126
v -14.062508 1.956269 -5.881127
v -14.062508 1.459015 5.886616
v -14.062508 -0.468663 5.886615
v -14.062508 1.956267 5.886616
v -4.479783 1.409936 5.886616
v -4.479783 -0.468663 5.886615
v -0.340622 1.409936 5.886616
v -0.340622 -0.468663 5.886615
v -4.479783 4.609574 5.886616
v -0.340622 9.478234 5.886617
v -9.098975 -0.420871 -5.310697
v -10.760942 -0.420871 -5.310697
v -10.660713 0.116315 -5.310697
v -10.760942 -0.420871 -6.251538
v -10.660713 0.116315 -6.251538
v -9.098975 -0.420871 -6.251538
v -10.372114 0.588707 -5.310697
v -10.372114 0.588707 -6.251538
v -9.929957 0.939330 -5.310697
v -9.929957 0.939330 -6.251538
v -9.387572 1.125892 -5.310696
v -9.387572 1.125893 -6.251538
v -8.810378 1.125892 -5.310696
v -8.810378 1.125893 -6.251538
v -8.267992 0.939330 -5.310697
v -8.267991 0.939330 -6.251538
v -7.825836 0.588707 -5.310697
v -7.825836 0.588707 -6.251538
v -7.537238 0.116315 -5.310697
v -7.537238 0.116315 -6.251538
v -7.437009 -0.420871 -5.310697
v -7.437009 -0.420871 -6.251538
v -7.537238 -0.958056 -5.310697
v -7.537238 -0.958056 -6.251538
v -7.825836 -1.430449 -5.310697
v -7.825836 -1.430449 -6.251538
v -8.267992 -1.781072 -5.310697
v -8.267991 -1.781072 -6.251538
v -8.810378 -1.967634 -5.310697
v -8.810378 -1.967634 -6.251538
v -9.387572 -1.967634 -5.310697
v -9.387572 -1.967634 -6.251538
v -9.929957 -1.781072 -5.310697
v -9.929957 -1.781072 -6.251538
v -10.372114 -1.430449 -5.310697
v -10.372114 -1.430449 -6.251538
v -10.660713 -0.958056 -5.310697
v -10.660713 -0.958056 -6.251538
v -9.098977 -0.420872 6.250668
v -10.760942 -0.420872 6.250668
v -10.660714 0.116313 6.250668
v -10.760942 -0.420872 5.309827
v -10.660714 0.116313 5.309827
v -9.098976 -0.420872 5.309827
v -10.372117 0.588705 6.250668
v -10.372117 0.588705 5.309827
v -9.929960 0.939328 6.250668
v -9.929960 0.939328 5.309827
v -9.387574 1.125890 6.250668
v -9.387574 1.125891 5.309827
v -8.810380 1.125890 6.250668
v -8.810380 1.125891 5.309827
v -8.267994 0.939328 6.250668
v -8.267994 0.939328 5.309827
v -7.825837 0.588705 6.250668
v -7.825837 0.588705 5.309827
v -7.537241 0.116313 6.250668
v -7.537241 0.116313 5.309827
v -7.437012 -0.420872 6.250668
v -7.437011 -0.420872 5.309827
v -7.537241 -0.958058 6.250668
v -7.537241 -0.958058 5.309827
v -7.825837 -1.430451 6.250668
v -7.825837 -1.430451 5.309827
v -8.267994 -1.781073 6.250668
v -8.267994 -1.781073 5.309827
v -8.810380 -1.967636 6.250668
v -8.810380 -1.967636 5.309827
v -9.387574 -1.967636 6.250668
v -9.387574 -1.967636 5.309827
v -9.929960 -1.781073 6.250668
v -9.929960 -1.781073 5.309827
v -10.372117 -1.430451 6.250668
v -10.372117 -1.430451 5.309827
v -10.660714 -0.958058 6.250668
v -10.660714 -0.958058 5.309827
v 9.582412 -0.420870 -5.310697
v 7.920444 -0.420870 -5.310697
v 8.020674 0.116315 -5.310697
v 7.920444 -0.420870 -6.251538
v 8.020674 0.116315 -6.251538
v 9.582412 -0.420870 -6.251538
v 8.309271 0.588708 -5.310697
v 8.309271 0.588709 -6.251538
v 8.751428 0.939331 -5.310697
v 8.751428 0.939331 -6.251538
v 9.293814 1.125893 -5.310696
v 9.293814 1.125893 -6.251538
v 9.871008 1.125893 -5.310696
v 9.871008 1.125893 -6.251538
v 10.413394 0.939331 -5.310697
v 10.413395 0.939331 -6.251538
v 10.855550 0.588708 -5.310697
v 10.855550 0.588709 -6.251538
v 11.144148 0.116315 -5.310697
v 11.144148 0.116315 -6.251538
v 11.244377 -0.420870 -5.310697
v 11.244378 -0.420870 -6.251538
v 11.144148 -0.958055 -5.310697
v 11.144148 -0.958055 -6.251538
v 10.855550 -1.430448 -5.310697
v 10.855550 -1.430448 -6.251538
v 10.413394 -1.781071 -5.310697
v 10.413395 -1.781071 -6.251538
v 9.871008 -1.967633 -5.310697
v 9.871008 -1.967633 -6.251538
v 9.293814 -1.967633 -5.310697
v 9.293814 -1.967633 -6.251538
v 8.751428 -1.781071 -5.310697
v 8.751428 -1.781071 -6.251538
v 8.309271 -1.430448 -5.310697
v 8.309271 -1.430448 -6.251538
v 8.020674 -0.958055 -5.310697
v 8.020674 -0.958055 -6.251538
v 9.582409 -0.420872 6.250668
v 7.920442 -0.420872 6.250668
v 8.020672 0.116313 6.250668
v 7.920442 -0.420872 5.309827
v 8.020673 0.116313 5.309827
v 9.582409 -0.420872 5.309827
v 8.309269 0.588706 6.250668
v 8.309269 0.588707 5.309827
v 8.751426 0.939329 6.250668
v 8.751426 0.939329 5.309827
v 9.293812 1.125892 6.250668
v 9.293812 1.125892 5.309827
v 9.871007 1.125892 6.250668
v 9.871007 1.125892 5.309827
v 10.413392 0.939329 6.250668
v 10.413392 0.939329 5.309827
v 10.855549 0.588706 6.250668
v 10.855549 0.588707 5.309827
v 11.144147 0.116313 6.250668
v 11.144147 0.116313 5.309827
v 11.244375 -0.420872 6.250668
v 11.244376 -0.420872 5.309827
v 11.144147 -0.958057 6.250668
v 11.144147 -0.958057 5.309827
v 10.855549 -1.430450 6.250668
v 10.855549 -1.430450 5.309827
v 10.413392 -1.781073 6.250668
v 10.413392 -1.781073 5.309827
v 9.871007 -1.967635 6.250668
v 9.871007 -1.967635 5.309827
v 9.293812 -1.967635 6.250668
v 9.293812 -1.967635 5.309827
v 8.751426 -1.781073 6.250668
v 8.751426 -1.781073 5.309827
v 8.309269 -1.430450 6.250668
v 8.309269 -1.430450 5.309827
v 8.020672 -0.958057 6.250668
v 8.020673 -0.958057 5.309827
vt 0.929503 -0.530972
vt 0.929503 -0.277791
vt 0.821501 -0.277791
vt 0.821501 -0.530972
vt 0.673463 -0.277791
vt 0.673463 -0.530972
vt 0.027499 -0.761385
vt 0.371136 -0.761385
vt 0.371136 -0.720967
vt 0.009525 -0.663153
vt 0.474544 -0.761385
vt 0.474544 -0.720967
vt 0.713949 -0.761385
vt 0.713949 -0.719911
vt 0.371136 -0.547378
vt 0.094551 -0.548184
vt 0.474544 -0.652127
vt 0.713949 -0.709213
vt 0.715025 -0.008203
vt 0.715025 -0.261385
vt 0.763184 -0.261385
vt 0.763184 -0.008203
vt 0.775607 -0.261385
vt 0.775607 -0.008203
vt 0.009525 -0.991797
vt 0.248930 -0.991797
vt 0.248930 -0.951379
vt 0.009525 -0.950323
vt 0.352338 -0.991797
vt 0.352338 -0.951379
vt 0.695975 -0.991797
vt 0.713949 -0.893565
vt 0.248930 -0.882539
vt 0.009525 -0.939625
vt 0.352338 -0.777791
vt 0.628923 -0.778596
vt 0.654413 -0.530972
vt 0.654413 -0.277791
vt 0.397303 -0.277791
vt 0.397303 -0.530972
vt 0.256595 -0.277791
vt 0.256595 -0.530972
vt 0.009525 -0.277791
vt 0.009525 -0.530972
vt 0.695975 -0.261385
vt 0.695975 -0.008203
vt 0.456570 -0.008203
vt 0.456570 -0.261385
vt 0.353162 -0.008203
vt 0.353162 -0.261385
vt 0.009525 -0.008203
vt 0.009525 -0.261385
vt 0.876612 -0.645144
vt 0.837595 -0.633586
vt 0.835091 -0.645144
vt 0.928707 -0.595459
vt 0.941460 -0.595459
vt 0.941460 -0.575217
vt 0.928707 -0.575217
vt 0.877699 -0.207407
vt 0.875195 -0.195849
vt 0.836178 -0.207407
vt 0.844805 -0.623423
vt 0.951776 -0.595459
vt 0.951776 -0.575217
vt 0.867985 -0.185686
vt 0.855852 -0.615879
vt 0.937183 -0.678422
vt 0.949535 -0.678422
vt 0.949535 -0.658180
vt 0.937183 -0.658180
vt 0.856938 -0.178142
vt 0.869402 -0.611865
vt 0.963673 -0.678422
vt 0.963673 -0.658180
vt 0.843388 -0.174128
vt 0.883822 -0.611865
vt 0.977891 -0.678422
vt 0.977891 -0.658180
vt 0.828968 -0.174128
vt 0.897372 -0.615879
vt 0.990475 -0.678422
vt 0.990475 -0.658180
vt 0.815418 -0.178142
vt 0.908419 -0.623423
vt 0.732999 -0.798033
vt 0.743599 -0.798033
vt 0.743599 -0.777791
vt 0.732999 -0.777791
vt 0.804371 -0.185686
vt 0.915629 -0.633586
vt 0.756504 -0.798033
vt 0.756504 -0.777791
vt 0.797161 -0.195849
vt 0.918133 -0.645144
vt 0.770156 -0.798033
vt 0.770156 -0.777791
vt 0.794657 -0.207407
vt 0.915629 -0.656701
vt 0.782909 -0.798033
vt 0.782909 -0.777791
vt 0.797161 -0.218964
vt 0.908419 -0.666865
vt 0.793225 -0.798033
vt 0.793225 -0.777791
vt 0.804371 -0.229128
vt 0.897372 -0.674408
vt 0.805341 -0.834681
vt 0.817694 -0.834681
vt 0.817694 -0.814438
vt 0.805341 -0.814438
vt 0.815418 -0.236671
vt 0.883822 -0.678422
vt 0.831831 -0.834681
vt 0.831831 -0.814438
vt 0.828968 -0.240685
vt 0.869402 -0.678422
vt 0.846050 -0.834681
vt 0.846050 -0.814438
vt 0.843388 -0.240685
vt 0.855852 -0.674408
vt 0.858633 -0.834681
vt 0.858633 -0.814438
vt 0.856938 -0.236671
vt 0.844805 -0.666865
vt 0.891550 -0.595459
vt 0.902151 -0.595459
vt 0.902151 -0.575217
vt 0.891550 -0.575217
vt 0.867985 -0.229128
vt 0.837595 -0.656701
vt 0.915055 -0.595459
vt 0.915055 -0.575217
vt 0.875195 -0.218964
vt 0.876612 -0.728106
vt 0.837595 -0.716549
vt 0.835091 -0.728106
vt 0.849431 -0.798033
vt 0.862184 -0.798033
vt 0.862184 -0.777791
vt 0.849431 -0.777791
vt 0.979791 -0.041481
vt 0.977287 -0.029924
vt 0.938270 -0.041481
vt 0.844805 -0.706385
vt 0.872500 -0.798033
vt 0.872500 -0.777791
vt 0.970077 -0.019760
vt 0.855852 -0.698842
vt 0.937183 -0.641774
vt 0.949535 -0.641774
vt 0.949535 -0.621532
vt 0.937183 -0.621532
vt 0.959030 -0.012217
vt 0.869402 -0.694828
vt 0.963673 -0.641774
vt 0.963673 -0.621532
vt 0.945480 -0.008203
vt 0.883822 -0.694828
vt 0.977891 -0.641774
vt 0.977891 -0.621532
vt 0.931060 -0.008203
vt 0.897372 -0.698842
vt 0.990475 -0.641774
vt 0.990475 -0.621532
vt 0.917509 -0.012217
vt 0.908419 -0.706385
vt 0.732999 -0.595459
vt 0.743599 -0.595459
vt 0.743599 -0.575217
vt 0.732999 -0.575217
vt 0.906463 -0.019760
vt 0.915629 -0.716549
vt 0.756504 -0.595459
vt 0.756504 -0.575217
vt 0.899253 -0.029924
vt 0.918133 -0.728106
vt 0.770156 -0.595459
vt 0.770156 -0.575217
vt 0.896749 -0.041481
vt 0.915629 -0.739664
vt 0.782909 -0.595459
vt 0.782909 -0.575217
vt 0.899253 -0.053039
vt 0.908419 -0.749827
vt 0.793225 -0.595459
vt 0.793225 -0.575217
vt 0.906463 -0.063202
vt 0.897372 -0.757371
vt 0.896749 -0.240685
vt 0.909101 -0.240685
vt 0.909101 -0.220443
vt 0.896749 -0.220443
vt 0.917509 -0.070746
vt 0.883822 -0.761385
vt 0.923239 -0.240685
vt 0.923239 -0.220443
vt 0.931060 -0.074760
vt 0.869402 -0.761385
vt 0.937457 -0.240685
vt 0.937457 -0.220443
vt 0.945480 -0.074760
vt 0.855852 -0.757371
vt 0.950041 -0.240685
vt 0.950041 -0.220443
vt 0.959030 -0.070746
vt 0.844805 -0.749827
vt 0.812275 -0.798033
vt 0.822875 -0.798033
vt 0.822875 -0.777791
vt 0.812275 -0.777791
vt 0.970077 -0.063202
vt 0.837595 -0.739664
vt 0.835779 -0.798033
vt 0.835779 -0.777791
vt 0.977287 -0.053039
vt 0.836178 -0.041481
vt 0.797161 -0.029924
vt 0.794657 -0.041481
vt 0.933906 -0.111408
vt 0.946659 -0.111408
vt 0.946659 -0.091166
vt 0.933906 -0.091166
vt 0.877699 -0.124444
vt 0.875195 -0.112887
vt 0.836178 -0.124444
vt 0.804371 -0.019760
vt 0.956974 -0.111408
vt 0.956974 -0.091166
vt 0.867985 -0.102723
vt 0.815418 -0.012217
vt 0.937183 -0.715070
vt 0.949535 -0.715070
vt 0.949535 -0.694828
vt 0.937183 -0.694828
vt 0.856938 -0.095179
vt 0.828968 -0.008203
vt 0.963673 -0.715070
vt 0.963673 -0.694828
vt 0.843388 -0.091166
vt 0.843388 -0.008203
vt 0.977891 -0.715070
vt 0.977891 -0.694828
vt 0.828968 -0.091166
vt 0.856938 -0.012217
vt 0.990475 -0.715070
vt 0.990475 -0.694828
vt 0.815418 -0.095179
vt 0.867985 -0.019760
vt 0.896749 -0.148056
vt 0.907349 -0.148056
vt 0.907349 -0.127813
vt 0.896749 -0.127813
vt 0.804371 -0.102723
vt 0.875195 -0.029924
vt 0.920254 -0.148056
vt 0.920254 -0.127813
vt 0.797161 -0.112887
vt 0.877699 -0.041481
vt 0.933906 -0.148056
vt 0.933906 -0.127813
vt 0.794657 -0.124444
vt 0.875195 -0.053039
vt 0.946659 -0.148056
vt 0.946659 -0.127813
vt 0.797161 -0.136002
vt 0.867985 -0.063202
vt 0.956974 -0.148056
vt 0.956974 -0.127813
vt 0.804371 -0.146165
vt 0.856938 -0.070746
vt 0.877684 -0.834681
vt 0.890036 -0.834681
vt 0.890036 -0.814438
vt 0.877684 -0.814438
vt 0.815418 -0.153709
vt 0.843388 -0.074760
vt 0.904173 -0.834681
vt 0.904173 -0.814438
vt 0.828968 -0.157723
vt 0.828968 -0.074760
vt 0.918392 -0.834681
vt 0.918392 -0.814438
vt 0.843388 -0.157723
vt 0.815418 -0.070746
vt 0.930975 -0.834681
vt 0.930975 -0.814438
vt 0.856938 -0.153709
vt 0.804371 -0.063202
vt 0.896749 -0.111408
vt 0.907349 -0.111408
vt 0.907349 -0.091166
vt 0.896749 -0.091166
vt 0.867985 -0.146165
vt 0.797161 -0.053039
vt 0.920254 -0.111408
vt 0.920254 -0.091166
vt 0.875195 -0.136002
vt 0.774520 -0.645144
vt 0.735503 -0.633586
vt 0.732999 -0.645144
vt 0.928707 -0.798033
vt 0.941460 -0.798033
vt 0.941460 -0.777791
vt 0.928707 -0.777791
vt 0.816041 -0.728106
vt 0.813537 -0.716549
vt 0.774520 -0.728106
vt 0.742713 -0.623423
vt 0.951776 -0.798033
vt 0.951776 -0.777791
vt 0.806327 -0.706385
vt 0.753760 -0.615879
vt 0.732999 -0.834681
vt 0.745351 -0.834681
vt 0.745351 -0.814438
vt 0.732999 -0.814438
vt 0.795281 -0.698842
vt 0.767310 -0.611865
vt 0.759489 -0.834681
vt 0.759489 -0.814438
vt 0.781730 -0.694828
vt 0.781730 -0.611865
vt 0.773707 -0.834681
vt 0.773707 -0.814438
vt 0.767310 -0.694828
vt 0.795281 -0.615879
vt 0.786291 -0.834681
vt 0.786291 -0.814438
vt 0.753760 -0.698842
vt 0.806327 -0.623423
vt 0.812275 -0.595459
vt 0.822875 -0.595459
vt 0.822875 -0.575217
vt 0.812275 -0.575217
vt 0.742713 -0.706385
vt 0.813537 -0.633586
vt 0.835779 -0.595459
vt 0.835779 -0.575217
vt 0.735503 -0.716549
vt 0.816041 -0.645144
vt 0.849431 -0.595459
vt 0.849431 -0.575217
vt 0.732999 -0.728106
vt 0.813537 -0.656701
vt 0.862184 -0.595459
vt 0.862184 -0.575217
vt 0.735503 -0.739664
vt 0.806327 -0.666865
vt 0.872500 -0.595459
vt 0.872500 -0.575217
vt 0.742713 -0.749827
vt 0.795281 -0.674408
vt 0.896749 -0.204037
vt 0.909101 -0.204037
vt 0.909101 -0.183795
vt 0.896749 -0.183795
vt 0.753760 -0.757371
vt 0.781730 -0.678422
vt 0.923239 -0.204037
vt 0.923239 -0.183795
vt 0.767310 -0.761385
vt 0.767310 -0.678422
vt 0.937457 -0.204037
vt 0.937457 -0.183795
vt 0.781730 -0.761385
vt 0.753760 -0.674408
vt 0.950041 -0.204037
vt 0.950041 -0.183795
vt 0.795281 -0.757371
vt 0.742713 -0.666865
vt 0.891550 -0.798033
vt 0.902151 -0.798033
vt 0.902151 -0.777791
vt 0.891550 -0.777791
vt 0.806327 -0.749827
vt 0.735503 -0.656701
vt 0.915055 -0.798033
vt 0.915055 -0.777791
vt 0.813537 -0.739664
vn 0.9878 -0.1557 0.0000
vn 0.8435 0.5372 0.0000
vn 0.0000 0.0000 -1.0000
vn -1.0000 0.0000 0.0000
vn 0.0000 -0.0000 1.0000
vn 0.0034 1.0000 0.0000
vn -0.7619 0.6477 0.0000
vn -0.2668 0.9637 0.0000
vn 0.0000 -1.0000 -0.0000
vn -0.9830 0.1834 0.0000
vn -0.8534 0.5213 0.0000
vn -0.6213 0.7835 0.0000
vn -0.3253 0.9456 0.0000
vn 0.0000 1.0000 0.0000
vn 0.3253 0.9456 0.0000
vn 0.6213 0.7835 0.0000
vn 0.8534 0.5213 0.0000
vn 0.9830 0.1834 0.0000
vn 0.9830 -0.1834 -0.0000
vn 0.8534 -0.5213 0.0000
vn 0.6213 -0.7835 0.0000
vn 0.3253 -0.9456 0.0000
vn -0.3253 -0.9456 0.0000
vn -0.6213 -0.7835 0.0000
vn -0.8534 -0.5213 0.0000
vn -0.9830 -0.1834 -0.0000
usemtl CAR_01
s 1
f 1/1/1 4/2/1 3/3/1 2/4/1
f 2/4/2 3/3/2 6/5/2 5/6/2
f 4/7/3 8/8/3 7/9/3 3/10/3
f 8/8/3 10/11/3 9/12/3 7/9/3
f 10/11/3 12/13/3 11/14/3 9/12/3
f 3/10/3 7/9/3 13/15/3 6/16/3
f 7/9/3 9/12/3 14/17/3 13/15/3
f 9/12/3 11/14/3 15/18/3 14/17/3
f 12/19/4 17/20/4 16/21/4 11/22/4
f 11/22/4 16/21/4 18/23/4 15/24/4
f 17/25/5 20/26/5 19/27/5 16/28/5
f 20/26/5 22/29/5 21/30/5 19/27/5
f 22/29/5 1/31/5 2/32/5 21/30/5
f 16/28/5 19/27/5 23/33/5 18/34/5
f 19/27/5 21/30/5 24/35/5 23/33/5
f 21/30/5 2/32/5 5/36/5 24/35/5
f 5/37/6 6/38/6 13/39/6 24/40/6
f 24/40/7 13/39/7 14/41/7 23/42/7
f 23/42/8 14/41/8 15/43/8 18/44/8
f 17/45/9 12/46/9 10/47/9 20/48/9
f 20/48/9 10/47/9 8/49/9 22/50/9
f 22/50/9 8/49/9 4/51/9 1/52/9
f 25/53/5 27/54/5 26/55/5
f 26/56/10 27/57/10 29/58/10 28/59/10
f 28/60/3 29/61/3 30/62/3
f 25/53/5 31/63/5 27/54/5
f 27/57/11 31/64/11 32/65/11 29/58/11
f 29/61/3 32/66/3 30/62/3
f 25/53/5 33/67/5 31/63/5
f 31/68/12 33/69/12 34/70/12 32/71/12
f 32/66/3 34/72/3 30/62/3
f 25/53/5 35/73/5 33/67/5
f 33/69/13 35/74/13 36/75/13 34/70/13
f 34/72/3 36/76/3 30/62/3
f 25/53/5 37/77/5 35/73/5
f 35/74/14 37/78/14 38/79/14 36/75/14
f 36/76/3 38/80/3 30/62/3
f 25/53/5 39/81/5 37/77/5
f 37/78/15 39/82/15 40/83/15 38/79/15
f 38/80/3 40/84/3 30/62/3
f 25/53/5 41/85/5 39/81/5
f 39/86/16 41/87/16 42/88/16 40/89/16
f 40/84/3 42/90/3 30/62/3
f 25/53/5 43/91/5 41/85/5
f 41/87/17 43/92/17 44/93/17 42/88/17
f 42/90/3 44/94/3 30/62/3
f 25/53/5 45/95/5 43/91/5
f 43/92/18 45/96/18 46/97/18 44/93/18
f 44/94/3 46/98/3 30/62/3
f 25/53/5 47/99/5 45/95/5
f 45/96/19 47/100/19 48/101/19 46/97/19
f 46/98/3 48/102/3 30/62/3
f 25/53/5 49/103/5 47/99/5
f 47/100/20 49/104/20 50/105/20 48/101/20
f 48/102/3 50/106/3 30/62/3
f 25/53/5 51/107/5 49/103/5
f 49/108/21 51/109/21 52/110/21 50/111/21
f 50/106/3 52/112/3 30/62/3
f 25/53/5 53/113/5 51/107/5
f 51/109/22 53/114/22 54/115/22 52/110/22
f 52/112/3 54/116/3 30/62/3
f 25/53/5 55/117/5 53/113/5
f 53/114/9 55/118/9 56/119/9 54/115/9
f 54/116/3 56/120/3 30/62/3
f 25/53/5 57/121/5 55/117/5
f 55/118/23 57/122/23 58/123/23 56/119/23
f 56/120/3 58/124/3 30/62/3
f 25/53/5 59/125/5 57/121/5
f 57/126/24 59/127/24 60/128/24 58/129/24
f 58/124/3 60/130/3 30/62/3
f 25/53/5 61/131/5 59/125/5
f 59/127/25 61/132/25 62/133/25 60/128/25
f 60/130/3 62/134/3 30/62/3
f 25/53/5 26/55/5 61/131/5
f 61/132/26 26/56/26 28/59/26 62/133/26
f 62/134/3 28/60/3 30/62/3
f 63/135/5 65/136/5 64/137/5
f 64/138/10 65/139/10 67/140/10 66/141/10
f 66/142/3 67/143/3 68/144/3
f 63/135/5 69/145/5 65/136/5
f 65/139/11 69/146/11 70/147/11 67/140/11
f 67/143/3 70/148/3 68/144/3
f 63/135/5 71/149/5 69/145/5
f 69/150/12 71/151/12 72/152/12 70/153/12
f 70/148/3 72/154/3 68/144/3
f 63/135/5 73/155/5 71/149/5
f 71/151/13 73/156/13 74/157/13 72/152/13
f 72/154/3 74/158/3 68/144/3
f 63/135/5 75/159/5 73/155/5
f 73/156/14 75/160/14 76/161/14 74/157/14
f 74/158/3 76/162/3 68/144/3
f 63/135/5 77/163/5 75/159/5
f 75/160/15 77/164/15 78/165/15 76/161/15
f 76/162/3 78/166/3 68/144/3
f 63/135/5 79/167/5 77/163/5
f 77/168/16 79/169/16 80/170/16 78/171/16
f 78/166/3 80/172/3 68/144/3
f 63/135/5 81/173/5 79/167/5
f 79/169/17 81/174/17 82/175/17 80/170/17
f 80/172/3 82/176/3 68/144/3
f 63/135/5 83/177/5 81/173/5
f 81/174/18 83/178/18 84/179/18 82/175/18
f 82/176/3 84/180/3 68/144/3
f 63/135/5 85/181/5 83/177/5
f 83/178/19 85/182/19 86/183/19 84/179/19
f 84/180/3 86/184/3 68/144/3
f 63/135/5 87/185/5 85/181/5
f 85/182/20 87/186/20 88/187/20 86/183/20
f 86/184/3 88/188/3 68/144/3
f 63/135/5 89/189/5 87/185/5
f 87/190/21 89/191/21 90/192/21 88/193/21
f 88/188/3 90/194/3 68/144/3
f 63/135/5 91/195/5 89/189/5
f 89/191/22 91/196/22 92/197/22 90/192/22
f 90/194/3 92/198/3 68/144/3
f 63/135/5 93/199/5 91/195/5
f 91/196/9 93/200/9 94/201/9 92/197/9
f 92/198/3 94/202/3 68/144/3
f 63/135/5 95/203/5 93/199/5
f 93/200/23 95/204/23 96/205/23 94/201/23
f 94/202/3 96/206/3 68/144/3
f 63/135/5 97/207/5 95/203/5
f 95/208/24 97/209/24 98/210/24 96/211/24
f 96/206/3 98/212/3 68/144/3
f 63/135/5 99/213/5 97/207/5
f 97/209/25 99/214/25 100/215/25 98/210/25
f 98/212/3 100/216/3 68/144/3
f 63/135/5 64/137/5 99/213/5
f 99/214/26 64/138/26 66/141/26 100/215/26
f 100/216/3 66/142/3 68/144/3
f 101/217/5 103/218/5 102/219/5
f 102/220/10 103/221/10 105/222/10 104/223/10
f 104/224/3 105/225/3 106/226/3
f 101/217/5 107/227/5 103/218/5
f 103/221/11 107/228/11 108/229/11 105/222/11
f 105/225/3 108/230/3 106/226/3
f 101/217/5 109/231/5 107/227/5
f 107/232/12 109/233/12 110/234/12 108/235/12
f 108/230/3 110/236/3 106/226/3
f 101/217/5 111/237/5 109/231/5
f 109/233/13 111/238/13 112/239/13 110/234/13
f 110/236/3 112/240/3 106/226/3
f 101/217/5 113/241/5 111/237/5
f 111/238/14 113/242/14 114/243/14 112/239/14
f 112/240/3 114/244/3 106/226/3
f 101/217/5 115/245/5 113/241/5
f 113/242/15 115/246/15 116/247/15 114/243/15
f 114/244/3 116/248/3 106/226/3
f 101/217/5 117/249/5 115/245/5
f 115/250/16 117/251/16 118/252/16 116/253/16
f 116/248/3 118/254/3 106/226/3
f 101/217/5 119/255/5 117/249/5
f 117/251/17 119/256/17 120/257/17 118/252/17
f 118/254/3 120/258/3 106/226/3
f 101/217/5 121/259/5 119/255/5
f 119/256/18 121/260/18 122/261/18 120/257/18
f 120/258/3 122/262/3 106/226/3
f 101/217/5 123/263/5 121/259/5
f 121/260/19 123/264/19 124/265/19 122/261/19
f 122/262/3 124/266/3 106/226/3
f 101/217/5 125/267/5 123/263/5
f 123/264/20 125/268/20 126/269/20 124/265/20
f 124/266/3 126/270/3 106/226/3
f 101/217/5 127/271/5 125/267/5
f 125/272/21 127/273/21 128/274/21 126/275/21
f 126/270/3 128/276/3 106/226/3
f 101/217/5 129/277/5 127/271/5
f 127/273/22 129/278/22 130/279/22 128/274/22
f 128/276/3 130/280/3 106/226/3
f 101/217/5 131/281/5 129/277/5
f 129/278/9 131/282/9 132/283/9 130/279/9
f 130/280/3 132/284/3 106/226/3
f 101/217/5 133/285/5 131/281/5
f 131/282/23 133/286/23 134/287/23 132/283/23
f 132/284/3 134/288/3 106/226/3
f 101/217/5 135/289/5 133/285/5
f 133/290/24 135/291/24 136/292/24 134/293/24
f 134/288/3 136/294/3 106/226/3
f 101/217/5 137/295/5 135/289/5
f 135/291/25 137/296/25 138/297/25 136/292/25
f 136/294/3 138/298/3 106/226/3
f 101/217/5 102/219/5 137/295/5
f 137/296/26 102/220/26 104/223/26 138/297/26
f 138/298/3 104/224/3 106/226/3
f 139/299/5 141/300/5 140/301/5
f 140/302/10 141/303/10 143/304/10 142/305/10
f 142/306/3 143/307/3 144/308/3
f 139/299/5 145/309/5 141/300/5
f 141/303/11 145/310/11 146/311/11 143/304/11
f 143/307/3 146/312/3 144/308/3
f 139/299/5 147/313/5 145/309/5
f 145/314/12 147/315/12 148/316/12 146/317/12
f 146/312/3 148/318/3 144/308/3
f 139/299/5 149/319/5 147/313/5
f 147/315/13 149/320/13 150/321/13 148/316/13
f 148/318/3 150/322/3 144/308/3
f 139/299/5 151/323/5 149/319/5
f 149/320/14 151/324/14 152/325/14 150/321/14
f 150/322/3 152/326/3 144/308/3
f 139/299/5 153/327/5 151/323/5
f 151/324/15 153/328/15 154/329/15 152/325/15
f 152/326/3 154/330/3 144/308/3
f 139/299/5 155/331/5 153/327/5
f 153/332/16 155/333/16 156/334/16 154/335/16
f 154/330/3 156/336/3 144/308/3
f 139/299/5 157/337/5 155/331/5
f 155/333/17 157/338/17 158/339/17 156/334/17
f 156/336/3 158/340/3 144/308/3
f 139/299/5 159/341/5 157/337/5
f 157/338/18 159/342/18 160/343/18 158/339/18
f 158/340/3 160/344/3 144/308/3
f 139/299/5 161/345/5 159/341/5
f 159/342/19 161/346/19 162/347/19 160/343/19
f 160/344/3 162/348/3 144/308/3
f 139/299/5 163/349/5 161/345/5
f 161/346/20 163/350/20 164/351/20 162/347/20
f 162/348/3 164/352/3 144/308/3
f 139/299/5 165/353/5 163/349/5
f 163/354/21 165/355/21 166/356/21 164/357/21
f 164/352/3 166/358/3 144/308/3
f 139/299/5 167/359/5 165/353/5
f 165/355/22 167/360/22 168/361/22 166/356/22
f 166/358/3 168/362/3 144/308/3
f 139/299/5 169/363/5 167/359/5
f 167/360/9 169/364/9 170/365/9 168/361/9
f 168/362/3 170/366/3 144/308/3
f 139/299/5 171/367/5 169/363/5
f 169/364/23 171/368/23 172/369/23 170/365/23
f 170/366/3 172/370/3 144/308/3
f 139/299/5 173/371/5 171/367/5
f 171/372/24 173/373/24 174/374/24 172/375/24
f 172/370/3 174/376/3 144/308/3
f 139/299/5 175/377/5 173/371/5
f 173/373/25 175/378/25 176/379/25 174/374/25
f 174/376/3 176/380/3 144/308/3
f 139/299/5 140/301/5 175/377/5
f 175/378/26 140/302/26 142/305/26 176/379/26
f 176/380/3 142/306/3 144/308/3
