# Blender v2.83.2 OBJ File: ''
# www.blender.org
mtllib table.mtl
o Стол_Куб.004
v 0.483489 0.912033 1.761317
v 0.483489 0.912033 1.615163
v 0.627851 0.912033 1.761317
v 0.627851 0.912033 1.615163
v -1.909197 0.912033 0.073077
v -1.909197 0.912033 -0.073077
v -1.764834 0.912033 0.073077
v -1.764834 0.912033 -0.073077
v -1.909342 0.912033 1.757614
v -1.909342 0.912033 1.611461
v -1.764980 0.912033 1.757614
v -1.764980 0.912033 1.611461
v 0.483947 0.912033 0.073077
v 0.483947 0.912033 -0.073077
v 0.628309 0.912033 0.073077
v 0.628309 0.912033 -0.073077
v -2.188276 2.652900 1.798320
v -2.188276 2.575368 1.798320
v -2.188276 2.652900 -0.117821
v -2.188276 2.575368 -0.117821
v 0.947684 2.652900 1.798320
v 0.947684 2.575368 1.798320
v 0.947684 2.652900 -0.117821
v 0.947684 2.575368 -0.117821
v 0.483947 2.575368 -0.073077
v 0.628309 2.575368 -0.073077
v 0.628309 2.575368 0.073077
v 0.483947 2.575368 0.073077
v -1.909342 2.575368 1.611461
v -1.764980 2.575368 1.611461
v -1.764980 2.575368 1.757614
v -1.909342 2.575368 1.752978
v -1.909342 2.575368 1.757614
v -1.909197 2.575368 -0.073077
v -1.764834 2.575368 -0.073077
v -1.764834 2.575368 0.073077
v -1.909197 2.575368 0.073077
v 0.483489 2.575368 1.615163
v 0.627851 2.575368 1.615163
v 0.627851 2.575368 1.761317
v 0.483489 2.575368 1.761317
vt -0.506739 0.000000
vt 1.498808 0.000000
vt 1.498807 0.250000
vt -0.506739 0.250000
vt -0.542932 0.250000
vt 1.535001 0.250000
vt 1.535001 0.500000
vt -0.542932 0.500000
vt 1.535001 0.750000
vt -0.542932 0.750000
vt -0.151429 0.954986
vt 1.143498 0.954986
vt 1.143499 0.795014
vt -0.151429 0.795014
vt 0.125000 0.500000
vt 0.375000 0.500000
vt 0.375000 0.750000
vt 0.125000 0.750000
vt -0.396873 -0.025955
vt 1.388942 -0.025955
vt 1.388942 0.275955
vt -0.396873 0.275955
vt -1.185627 0.250000
vt 2.177696 0.250000
vt 2.177696 0.500000
vt -1.185627 0.500000
vt -0.166819 0.500000
vt 1.158888 0.500000
vt 1.158888 0.750000
vt -0.166819 0.750000
vt 1.158888 1.000000
vt -0.166819 1.000000
vt 0.125000 0.500000
vt 0.375000 0.500000
vt 0.375000 0.750000
vt 0.125000 0.750000
vt -0.396873 -0.025955
vt 1.388942 -0.025955
vt 1.388942 -0.016377
vt 1.388942 0.275955
vt -0.396873 0.275955
vt -0.245151 0.250000
vt 1.237221 0.250000
vt 1.237221 0.500000
vt -0.245151 0.500000
vt 1.237221 0.750000
vt -0.245151 0.750000
vt -0.151429 0.954986
vt 1.143499 0.954986
vt 1.143499 0.795014
vt -0.151429 0.795014
vt 0.125000 0.500000
vt 0.375000 0.500000
vt 0.375000 0.750000
vt 0.125000 0.750000
vt -0.683437 0.000000
vt 1.675506 0.000000
vt 1.675506 0.250000
vt -0.683437 0.250000
vt -1.185627 0.250000
vt 2.177696 0.250000
vt 2.177696 0.500000
vt -1.185627 0.500000
vt -0.262905 0.500000
vt 1.254974 0.500000
vt 1.254974 0.750000
vt -0.262905 0.750000
vt 1.254974 1.000000
vt -0.262905 1.000000
vt 0.125000 0.500000
vt 0.375000 0.500000
vt 0.375000 0.750000
vt 0.125000 0.750000
vt 0.473071 -0.438859
vt 0.473071 0.688859
vt 0.526929 0.688859
vt 0.526929 -0.438859
vt 0.478359 -0.084487
vt 0.478359 0.834487
vt 0.521641 0.834487
vt 0.521641 -0.084487
vt 0.518320 0.010931
vt 0.518320 1.239070
vt 0.481680 1.239070
vt 0.481680 0.010931
vt 0.540928 -0.223298
vt 0.540928 1.519727
vt 0.503631 1.519727
vt 0.503631 -0.223298
vt 1.002632 -0.007336
vt -0.032592 -0.003783
vt -0.025429 1.039068
vt 1.009795 1.035516
vt 0.625000 0.500000
vt 0.625000 0.750000
vt 0.650507 0.726103
vt 0.662007 0.726104
vt 0.662006 0.745172
vt 0.841255 0.725620
vt 0.852763 0.725620
vt 0.852763 0.744084
vt 0.875000 0.750000
vt 0.875000 0.500000
vt 0.852752 0.524906
vt 0.841243 0.524906
vt 0.841243 0.505838
vt 0.661969 0.524906
vt 0.650461 0.524907
vt 0.650461 0.505838
vt 0.661969 0.505838
vt 0.852763 0.744689
vt 0.841255 0.744689
vt 0.852752 0.505838
vt 0.650497 0.745172
vn -1.0000 0.0000 0.0000
vn 0.0000 0.0000 -1.0000
vn 1.0000 0.0000 0.0000
vn 0.0000 0.0000 1.0000
vn 0.0000 -1.0000 0.0000
vn 0.0000 1.0000 0.0000
usemtl Material
s off
f 1/1/1 41/2/1 38/3/1 2/4/1
f 2/5/2 38/6/2 39/7/2 4/8/2
f 4/8/3 39/7/3 40/9/3 3/10/3
f 3/11/4 40/12/4 41/13/4 1/14/4
f 2/15/5 4/16/5 3/17/5 1/18/5
f 5/19/1 37/20/1 34/21/1 6/22/1
f 6/23/2 34/24/2 35/25/2 8/26/2
f 8/27/3 35/28/3 36/29/3 7/30/3
f 7/30/4 36/29/4 37/31/4 5/32/4
f 6/33/5 8/34/5 7/35/5 5/36/5
f 9/37/1 33/38/1 32/39/1 29/40/1 10/41/1
f 10/42/2 29/43/2 30/44/2 12/45/2
f 12/45/3 30/44/3 31/46/3 11/47/3
f 11/48/4 31/49/4 33/50/4 9/51/4
f 10/52/5 12/53/5 11/54/5 9/55/5
f 13/56/1 28/57/1 25/58/1 14/59/1
f 14/60/2 25/61/2 26/62/2 16/63/2
f 16/64/3 26/65/3 27/66/3 15/67/3
f 15/67/4 27/66/4 28/68/4 13/69/4
f 14/70/5 16/71/5 15/72/5 13/73/5
f 17/74/1 19/75/1 20/76/1 18/77/1
f 19/78/2 23/79/2 24/80/2 20/81/2
f 23/82/3 21/83/3 22/84/3 24/85/3
f 21/86/4 17/87/4 18/88/4 22/89/4
f 19/90/6 17/91/6 21/92/6 23/93/6
f 24/94/5 22/95/5 39/96/5 38/97/5 41/98/5 30/99/5 29/100/5 32/101/5 18/102/5 20/103/5 37/104/5 36/105/5 35/106/5 28/107/5 27/108/5 26/109/5
f 20/103/5 24/94/5 26/109/5 25/110/5 28/107/5
f 22/95/5 18/102/5 32/101/5 33/111/5 31/112/5 30/99/5
f 20/103/5 28/107/5 35/106/5 34/113/5 37/104/5
f 22/95/5 30/99/5 41/98/5 40/114/5 39/96/5
