# Blender v2.91.0 OBJ File: 'city.blend'
# www.blender.org
mtllib RoadElem.mtl
o Road_1_Cube.006_Road_1_Cube.020
v 19.708000 0.125786 -5.227186
v 19.708000 0.056228 -5.227186
v -17.647589 0.102181 -12.239859
v -17.647589 0.126238 -12.239859
v -10.520700 0.102181 -12.238998
v -10.520700 0.126238 -12.238998
v -4.106488 0.102181 -12.238194
v -4.106488 0.126238 -12.238194
v 3.020394 0.102181 -12.237301
v 3.020394 0.126238 -12.237301
v 9.434608 0.102181 -12.236497
v 9.434608 0.126238 -12.236497
v 16.561495 0.102181 -12.235604
v 16.561495 0.126238 -12.235604
v 19.708000 -0.123789 -5.227186
v -19.723339 -0.123789 -5.232127
v -19.723339 0.056228 -5.232127
v -19.723339 0.125786 -5.232127
v -4.106488 0.125784 -12.238194
v 9.434608 0.125784 -12.236497
v 19.705864 -0.123786 11.814803
v 19.705864 0.056231 11.814803
v 19.705864 0.125788 11.814803
v 16.561495 0.125784 -12.235604
v -19.725475 -0.123786 11.807920
v -19.725475 0.056231 11.807920
v -19.725475 0.125788 11.807920
v -17.647589 0.125784 -12.239859
v -10.520700 0.125784 -12.238998
v 3.020394 0.125784 -12.237301
v -19.722372 -0.123788 -12.947301
v -19.722372 0.056229 -12.947301
v 19.708965 -0.123788 -12.940418
v 19.708965 0.056229 -12.940418
v 19.708965 0.125784 -12.940418
v 16.561583 0.102181 -12.940969
v 16.561583 0.125784 -12.940969
v 16.561583 0.126238 -12.940969
v 9.434696 0.102181 -12.942214
v 9.434696 0.125784 -12.942214
v 9.434696 0.126238 -12.942214
v 3.020482 0.102181 -12.943331
v 3.020482 0.125784 -12.943331
v 3.020482 0.126238 -12.943331
v -4.106399 0.102181 -12.944575
v -4.106399 0.125784 -12.944575
v -4.106399 0.126238 -12.944575
v -10.520612 0.102181 -12.945692
v -10.520612 0.125784 -12.945692
v -10.520612 0.126238 -12.945692
v -17.647499 0.126238 -12.946937
v -19.722372 0.125784 -12.947301
v -17.647499 0.102181 -12.946937
v -17.647499 0.125784 -12.946937
vt 0.612707 0.755405
vt 0.612707 0.981059
vt 0.604013 0.981059
vt 0.581511 0.981059
vt 0.581511 0.755405
vt 0.604013 0.755405
vt 0.612707 0.435754
vt 0.612707 0.476539
vt 0.609757 0.476539
vt 0.609757 0.435754
vt 0.609757 0.399047
vt 0.609757 0.358262
vt 0.612707 0.358262
vt 0.612707 0.399047
vt 0.609757 0.280770
vt 0.612707 0.280770
vt 0.612707 0.321555
vt 0.609757 0.321555
vt 0.552369 0.280807
vt 0.552369 0.490745
vt 0.548415 0.490745
vt 0.548415 0.280807
vt 0.758353 0.280807
vt 0.758353 0.490745
vt 0.248986 0.020691
vt 0.026336 0.020691
vt 0.026336 0.016498
vt 0.248986 0.016498
vt 0.248986 0.239148
vt 0.026336 0.239148
vt 0.026337 0.466247
vt 0.248987 0.466247
vt 0.248987 0.470440
vt 0.026337 0.470440
vt 0.026337 0.247790
vt 0.248987 0.247790
vt 0.514628 0.900866
vt 0.514626 0.984170
vt 0.514626 0.984170
vt 0.514625 0.900863
vt 0.788438 0.808604
vt 0.788438 0.808604
vt 0.779602 0.808604
vt 0.779602 0.808604
vt 0.775601 0.808604
vt 0.775601 0.808604
vt 0.479355 0.381868
vt 0.256705 0.381874
vt 0.256705 0.371144
vt 0.479355 0.371144
vt 0.479344 0.258531
vt 0.256694 0.258536
vt 0.256694 0.247796
vt 0.479344 0.247796
vt 0.766501 0.263443
vt 0.976439 0.263438
vt 0.976439 0.273546
vt 0.766501 0.273546
vt 0.514625 0.863156
vt 0.514627 0.863159
vt 0.976451 0.184170
vt 0.766513 0.184165
vt 0.766513 0.174052
vt 0.976451 0.174052
vt 0.976451 0.130775
vt 0.766512 0.130770
vt 0.766512 0.120667
vt 0.976451 0.120667
vt 0.256705 0.347638
vt 0.479355 0.347643
vt 0.479355 0.358378
vt 0.256705 0.358378
vt 0.721794 0.900863
vt 0.721794 0.984170
vt 0.721794 0.863157
vt 0.964063 0.077415
vt 0.960343 0.077415
vt 0.960342 0.067288
vt 0.964063 0.067288
vt 0.766505 0.077416
vt 0.766505 0.067289
vt 0.466213 0.443554
vt 0.462267 0.443554
vt 0.462267 0.432824
vt 0.466213 0.432824
vt 0.256693 0.443554
vt 0.256693 0.432824
vt 0.497786 0.240080
vt 0.497786 0.244026
vt 0.487066 0.244026
vt 0.487066 0.240080
vt 0.497786 0.449600
vt 0.487066 0.449600
vt 0.109566 0.704682
vt 0.109571 0.508103
vt 0.127165 0.508103
vt 0.166038 0.508103
vt 0.166034 0.704682
vt 0.127165 0.704682
vt 0.529974 0.610142
vt 0.512195 0.610142
vt 0.512195 0.579895
vt 0.512195 0.513090
vt 0.850065 0.513082
vt 0.850065 0.579895
vt 0.850065 0.610135
vt 0.823097 0.610135
vt 0.823097 0.607370
vt 0.762029 0.607370
vt 0.762029 0.610137
vt 0.707069 0.610138
vt 0.707069 0.607370
vt 0.646001 0.607370
vt 0.646001 0.610139
vt 0.591041 0.610141
vt 0.591041 0.607370
vt 0.529974 0.607370
vt 0.742256 0.046226
vt 0.745976 0.046226
vt 0.745976 0.056338
vt 0.742255 0.056338
vt 0.548418 0.046226
vt 0.548418 0.056338
vt 0.819854 0.926787
vt 0.735138 0.926787
vt 0.735138 0.870015
vt 0.735138 0.844311
vt 0.819854 0.844311
vt 0.819854 0.870015
vt 0.497780 0.222068
vt 0.497780 0.226014
vt 0.487065 0.226014
vt 0.487065 0.222068
vt 0.497780 0.016494
vt 0.487065 0.016494
vt 0.960338 0.049897
vt 0.964058 0.049897
vt 0.964058 0.060019
vt 0.960337 0.060019
vt 0.766500 0.049897
vt 0.766500 0.060019
vn -0.0002 0.0000 1.0000
vn 0.0002 0.0000 -1.0000
vn -0.0001 0.0000 1.0000
vn 1.0000 0.0000 0.0001
vn -1.0000 0.0000 -0.0001
vn 0.0000 1.0000 -0.0000
vn -0.0000 -1.0000 0.0000
vn 0.0033 1.0000 -0.0000
usemtl Texture.009
s off
f 23/1/1 27/2/1 26/3/1 25/4/1 21/5/1 22/6/1
f 40/7/2 37/8/2 36/9/2 39/10/2
f 42/11/2 45/12/2 46/13/2 43/14/2
f 53/15/2 54/16/2 49/17/2 48/18/2
s 1
f 28/19/3 29/20/3 6/21/3 4/22/3
f 29/20/3 28/19/3 3/23/3 5/24/3
f 19/25/3 30/26/3 10/27/3 8/28/3
f 30/26/3 19/25/3 7/29/3 9/30/3
f 20/31/3 24/32/3 14/33/3 12/34/3
f 24/32/3 20/31/3 11/35/3 13/36/3
f 2/37/4 22/38/4 21/39/4 15/40/4
f 25/41/5 26/42/5 17/43/5 16/44/5
f 17/43/5 32/45/5 31/46/5 16/44/5
f 44/47/6 47/48/6 8/49/6 10/50/6
f 50/51/6 51/52/6 4/53/6 6/54/6
f 38/55/6 41/56/6 12/57/6 14/58/6
f 15/40/4 33/59/4 34/60/4 2/37/4
f 45/61/7 42/62/7 9/63/7 7/64/7
f 39/65/7 36/66/7 13/67/7 11/68/7
f 53/69/7 48/70/7 5/71/7 3/72/7
f 1/73/4 23/74/4 22/38/4 2/37/4 34/60/4 35/75/4
f 51/76/5 54/77/5 28/78/5 4/79/5
f 28/78/5 54/77/5 53/80/5 3/81/5
f 47/82/5 46/83/5 19/84/5 8/85/5
f 19/84/5 46/83/5 45/86/5 7/87/5
f 41/88/5 40/89/5 20/90/5 12/91/5
f 20/90/5 40/89/5 39/92/5 11/93/5
f 31/94/7 33/95/7 15/96/7 21/97/7 25/98/7 16/99/7
f 54/100/6 52/101/6 18/102/6 27/103/6 23/104/6 1/105/6 35/106/6 37/107/6 24/108/6 20/109/6 40/110/6 43/111/6 30/112/6 19/113/6 46/114/6 49/115/6 29/116/6 28/117/6
f 43/111/6 46/114/6 19/113/6 30/112/6
f 24/108/6 37/107/6 40/110/6 20/109/6
f 49/115/6 54/100/6 28/117/6 29/116/6
f 43/118/4 44/119/4 10/120/4 30/121/4
f 42/122/4 43/118/4 30/121/4 9/123/4
f 26/124/5 27/125/5 18/126/5 52/127/5 32/128/5 17/129/5
f 27/125/8 52/127/8 18/126/8
f 37/130/4 38/131/4 14/132/4 24/133/4
f 36/134/4 37/130/4 24/133/4 13/135/4
f 49/136/4 50/137/4 6/138/4 29/139/4
f 48/140/4 49/136/4 29/139/4 5/141/4
