# Blender v2.83.2 OBJ File: 'Trees.blend'
# www.blender.org
mtllib RoadElem.mtl
o Road_1_Cube.2132
v 2.522819 -1.176033 -11.701917
v 2.522819 -1.034589 -11.701917
v -0.139821 -1.176033 -11.701918
v -0.139821 -1.034589 -11.701918
v 1.990291 -1.176033 -11.701918
v 1.457762 -1.176033 -11.701918
v 0.925234 -1.176033 -11.701918
v 0.392707 -1.176033 -11.701918
v 0.392707 -1.034589 -11.701918
v 0.925234 -1.034589 -11.701918
v 1.457762 -1.034589 -11.701918
v 1.990291 -1.034589 -11.701918
v 2.522819 -1.176033 -12.766973
v 2.522819 -1.176033 -12.234446
v 2.522819 -1.034589 -12.234446
v -0.139821 -1.176033 -12.234446
v -0.139821 -1.176033 -12.766973
v -0.139821 -1.034589 -12.234446
v 0.392707 -1.034589 -12.234446
v 0.925235 -1.034589 -12.234446
v 1.457763 -1.034589 -12.234446
v 1.990291 -1.034589 -12.234446
v 2.522819 -1.106477 -12.234446
v 2.522819 -1.106477 -12.766973
v -0.139821 -1.106477 -12.766973
v -0.139821 -1.106477 -12.234446
v 0.392707 -1.106477 -12.234446
v 0.925235 -1.106477 -12.234446
v 1.457763 -1.106477 -12.234446
v 1.990291 -1.106477 -12.234446
v 2.382711 -1.130081 -12.983495
v 2.382711 -1.106024 -12.983495
v 1.901461 -1.130081 -12.983496
v 1.901461 -1.106024 -12.983496
v 1.468335 -1.130081 -12.983496
v 1.468335 -1.106024 -12.983496
v 0.987085 -1.130081 -12.983496
v 0.987085 -1.106024 -12.983496
v 0.553959 -1.130081 -12.983496
v 0.553959 -1.106024 -12.983496
v 0.072709 -1.130081 -12.983496
v 0.072709 -1.106024 -12.983496
v 2.522819 -1.356050 -12.234446
v 2.522819 -1.356050 -11.701917
v 0.392707 -1.356050 -11.701918
v -0.139821 -1.356050 -11.701918
v 1.990291 -1.356050 -11.701918
v 1.457762 -1.356050 -11.701918
v 0.925234 -1.356050 -11.701918
v 2.522819 -1.356050 -12.766973
v -0.139821 -1.356050 -12.234446
v -0.139821 -1.356050 -12.766973
v 2.522819 -1.105311 -11.701917
v 2.522819 -1.105311 -12.234446
v -0.139821 -1.106477 -13.034942
v -0.139821 -1.176033 -13.034942
v 0.553959 -1.130081 -13.034942
v 0.553959 -1.106024 -13.034942
v 0.072709 -1.106024 -13.034942
v 0.072709 -1.130081 -13.034942
v 1.901461 -1.106024 -13.034942
v 0.987085 -1.106024 -13.034942
v 1.468335 -1.106024 -13.034942
v 0.987085 -1.130081 -13.034942
v 1.901461 -1.130081 -13.034942
v 1.468335 -1.130081 -13.034942
v -0.139821 -1.356050 -13.034942
v 2.522819 -1.106477 -13.034943
v 2.522819 -1.176033 -13.034942
v 2.522819 -1.106477 -13.034943
v 2.382711 -1.130081 -13.034943
v 2.382711 -1.106024 -13.034943
v 2.522819 -1.356050 -13.034942
vt 0.416453 0.906956
vt 0.416453 0.906956
vt 0.455769 0.906956
vt 0.455769 0.906956
vt 0.455769 0.710378
vt 0.416453 0.710378
vt 0.009219 0.749695
vt 0.009219 0.789010
vt 0.009219 0.828326
vt 0.009219 0.867642
vt 0.009219 0.906957
vt 0.205798 0.906957
vt 0.205798 0.867642
vt 0.205798 0.828326
vt 0.205798 0.789010
vt 0.205798 0.749694
vt 0.205798 0.710379
vt 0.107509 0.710379
vt 0.009219 0.710379
vt 0.312930 0.749696
vt 0.312930 0.789012
vt 0.312930 0.828328
vt 0.312930 0.867643
vt 0.312930 0.906959
vt 0.412840 0.906959
vt 0.412840 0.867643
vt 0.412840 0.828328
vt 0.412840 0.789012
vt 0.412840 0.749696
vt 0.412840 0.710381
vt 0.312930 0.710381
vt 0.514626 0.985118
vt 0.935906 0.985118
vt 0.721794 0.985118
vt 0.721794 0.900863
vt 0.721794 0.858465
vt 0.514627 0.858466
vt 0.514628 0.900866
vt 0.107512 0.951974
vt 0.107512 0.912658
vt 0.009223 0.912658
vt 0.009223 0.951975
vt 0.448913 0.665369
vt 0.448913 0.626053
vt 0.448913 0.586737
vt 0.448913 0.547422
vt 0.448913 0.508106
vt 0.409598 0.508106
vt 0.409598 0.547422
vt 0.409598 0.586737
vt 0.409598 0.626053
vt 0.409598 0.665369
vt 0.409598 0.704684
vt 0.448913 0.704684
vt 0.766505 0.067289
vt 0.766505 0.091137
vt 0.964063 0.091137
vt 0.964063 0.067288
vt 0.758353 0.490745
vt 0.758353 0.280807
vt 0.548415 0.280807
vt 0.548415 0.490745
vt 0.256693 0.432824
vt 0.256693 0.458118
vt 0.466213 0.458118
vt 0.466213 0.432824
vt 0.026336 0.239148
vt 0.248986 0.239148
vt 0.248986 0.016498
vt 0.026336 0.016498
vt 0.487066 0.449600
vt 0.512359 0.449600
vt 0.512359 0.240080
vt 0.487066 0.240080
vt 0.248987 0.247790
vt 0.026337 0.247790
vt 0.026337 0.470440
vt 0.248987 0.470440
vt 0.166480 0.508103
vt 0.127165 0.508103
vt 0.107381 0.508103
vt 0.107381 0.704682
vt 0.127165 0.704682
vt 0.166481 0.704682
vt 0.205796 0.704682
vt 0.205796 0.665366
vt 0.205796 0.626050
vt 0.205796 0.586734
vt 0.205796 0.547419
vt 0.205796 0.508103
vt 0.514625 0.900863
vt 0.514626 0.985118
vt 0.205798 0.906957
vt 0.205798 0.867642
vt 0.205798 0.749694
vt 0.205798 0.710379
vt 0.205798 0.789010
vt 0.205798 0.828326
vt 0.205802 0.951974
vt 0.205802 0.951974
vt 0.205802 0.912658
vt 0.205802 0.912658
vt 0.779602 0.808604
vt 0.779602 0.808604
vt 0.775104 0.808604
vt 0.775104 0.808604
vt 0.788540 0.808604
vt 0.788540 0.808604
vt 0.479355 0.396436
vt 0.479355 0.371144
vt 0.256705 0.371144
vt 0.256705 0.396437
vt 0.479344 0.273089
vt 0.479344 0.247796
vt 0.256694 0.247796
vt 0.256694 0.273089
vt 0.850065 0.613898
vt 0.850065 0.579895
vt 0.850065 0.512322
vt 0.782491 0.512322
vt 0.714917 0.512322
vt 0.647343 0.512322
vt 0.579770 0.512322
vt 0.512195 0.512322
vt 0.512195 0.579895
vt 0.512195 0.613898
vt 0.766501 0.249696
vt 0.766501 0.273546
vt 0.976439 0.273546
vt 0.976439 0.249696
vt 0.514625 0.858464
vt 0.548418 0.032490
vt 0.548418 0.056338
vt 0.745976 0.056338
vt 0.745976 0.032490
vt 0.976451 0.197902
vt 0.976451 0.174052
vt 0.766513 0.174052
vt 0.766513 0.197902
vt 0.735138 0.841119
vt 0.735138 0.927439
vt 0.647582 0.927439
vt 0.733718 0.927439
vt 0.819854 0.927439
vt 0.819854 0.870015
vt 0.819854 0.841119
vt 0.512359 0.016494
vt 0.487065 0.016494
vt 0.487065 0.226014
vt 0.512359 0.226014
vt 0.766500 0.036169
vt 0.766500 0.060019
vt 0.964058 0.060019
vt 0.964058 0.036169
vt 0.976451 0.144517
vt 0.976451 0.120667
vt 0.766512 0.120667
vt 0.766512 0.144517
vt 0.256705 0.333085
vt 0.256705 0.358378
vt 0.479355 0.358378
vt 0.479355 0.333085
vn -1.0000 0.0000 -0.0000
vn -0.0000 0.0000 1.0000
vn 0.0000 0.0000 -1.0000
vn 1.0000 0.0000 0.0000
vn 0.0000 1.0000 0.0000
vn 0.0000 -1.0000 0.0000
usemtl Texture
s off
f 16/1/1 51/2/1 46/3/1 3/4/1
f 16/1/1 3/4/1 4/5/1 18/6/1
f 12/7/2 11/8/2 10/9/2 9/10/2 4/11/2 3/12/2 8/13/2 7/14/2 6/15/2 5/16/2 1/17/2 53/18/2 2/19/2
f 19/20/3 20/21/3 21/22/3 22/23/3 15/24/3 23/25/3 30/26/3 29/27/3 28/28/3 27/29/3 26/30/3 18/31/3
f 16/32/1 18/33/1 26/34/1 25/35/1 55/36/1 56/37/1 17/38/1
f 53/39/4 54/40/4 15/41/4 2/42/4
f 22/43/5 21/44/5 20/45/5 19/46/5 18/47/5 4/48/5 9/49/5 10/50/5 11/51/5 12/52/5 2/53/5 15/54/5
f 31/55/4 71/56/4 72/57/4 32/58/4
f 33/59/2 31/60/2 32/61/2 34/62/2
f 35/63/4 66/64/4 63/65/4 36/66/4
f 37/67/2 35/68/2 36/69/2 38/70/2
f 39/71/4 57/72/4 58/73/4 40/74/4
f 41/75/2 39/76/2 40/77/2 42/78/2
f 51/79/6 52/80/6 67/81/6 73/82/6 50/83/6 43/84/6 44/85/6 47/86/6 48/87/6 49/88/6 45/89/6 46/90/6
f 17/38/1 52/91/1 51/92/1 16/32/1
f 3/12/2 46/93/2 45/94/2 8/13/2
f 5/16/2 47/95/2 44/96/2 1/17/2
f 6/15/2 48/97/2 47/95/2 5/16/2
f 7/14/2 49/98/2 48/97/2 6/15/2
f 8/13/2 45/94/2 49/98/2 7/14/2
f 1/99/4 44/100/4 43/101/4 14/102/4
f 13/103/4 50/104/4 73/105/4 69/106/4
f 14/107/4 43/108/4 50/104/4 13/103/4
f 1/99/4 14/102/4 54/40/4 53/39/4
f 62/109/5 38/110/5 36/111/5 63/112/5
f 61/113/5 34/114/5 32/115/5 72/116/5
f 55/117/5 25/118/5 26/119/5 27/120/5 28/121/5 29/122/5 30/123/5 23/124/5 24/125/5 68/126/5
f 59/127/5 42/128/5 40/129/5 58/130/5
f 67/131/1 52/91/1 17/38/1 56/37/1
f 64/132/1 37/133/1 38/134/1 62/135/1
f 66/136/6 35/137/6 37/138/6 64/139/6
f 70/140/4 23/141/4 15/142/4 54/143/4 14/144/4 13/145/4 69/146/4
f 60/147/1 41/148/1 42/149/1 59/150/1
f 65/151/1 33/152/1 34/153/1 61/154/1
f 57/155/6 39/156/6 41/157/6 60/158/6
f 71/159/6 31/160/6 33/161/6 65/162/6
